<svg xmlns="http://www.w3.org/2000/svg" version="1.1" viewBox="57.344 368.64 913.408 268.288" style="max-height: 500px" width="913.408" height="268.288">
<g id="#126c66ff">
<path d="M 108.04 394.87 C 117.15 384.75 131.54 380.01 144.95 380.74 C 168.80 381.14 190.42 401.30 192.86 424.97 C 193.78 433.87 192.98 443.10 189.47 451.40 C 182.54 469.20 164.41 481.60 145.50 482.76 C 134.93 483.38 124.34 482.75 113.77 483.11 C 113.71 499.77 113.87 516.43 113.80 533.09 C 117.78 535.29 121.61 537.89 124.51 541.46 C 126.35 543.31 127.82 546.42 130.90 546.10 C 142.60 546.10 154.30 545.99 166.00 546.11 C 179.93 546.66 193.91 538.72 200.25 526.22 C 204.06 519.49 204.88 511.59 205.16 503.99 C 205.16 477.97 205.15 451.95 205.16 425.93 C 206.81 401.61 228.77 381.18 253.03 380.65 C 268.38 379.72 283.75 386.62 293.48 398.47 C 306.99 413.91 308.73 437.59 299.59 455.64 C 291.73 470.73 275.83 481.29 258.85 482.64 C 247.96 483.51 237.01 482.68 226.10 483.15 C 225.63 492.10 225.99 501.07 225.89 510.03 C 224.39 538.40 200.41 563.91 172.09 566.79 C 159.05 567.25 145.99 566.52 132.95 567.15 C 130.90 583.09 116.09 595.98 100.00 595.58 C 84.56 595.95 69.65 584.10 67.29 568.71 C 66.69 561.69 66.74 554.05 70.61 547.88 C 76.20 539.89 84.13 534.00 93.45 531.09 C 94.36 496.39 93.49 461.64 93.85 426.92 C 94.00 414.71 100.64 404.08 108.04 394.87 M 113.84 431.01 C 113.72 441.23 113.77 451.46 113.90 461.68 C 123.92 461.54 133.95 461.86 143.97 461.50 C 159.37 460.65 173.24 446.14 171.56 430.44 C 170.75 416.27 158.70 402.76 144.02 402.87 C 128.50 401.52 113.77 415.56 113.84 431.01 M 232.45 414.18 C 227.02 417.75 225.26 424.86 225.18 431.01 C 225.40 441.55 225.06 452.11 225.36 462.65 C 235.59 462.84 245.84 462.96 256.06 462.71 C 262.99 461.97 270.91 459.82 274.90 453.62 C 283.06 446.14 286.52 433.85 282.66 423.36 C 278.99 412.05 268.24 402.71 256.00 402.85 C 246.80 402.21 238.21 407.33 232.45 414.18 M 97.37 549.47 C 90.60 550.87 85.54 558.15 87.16 565.03 C 87.91 572.41 95.90 577.46 102.94 575.94 C 108.90 574.22 114.19 568.49 113.14 561.95 C 113.31 554.00 104.99 547.72 97.37 549.47 Z" opacity="1.00" fill="#126c66"/>
</g>
<g id="#0a293cff">
<path d="M 92.81 428.05 C 92.90 415.56 98.42 402.94 108.04 394.87 C 100.64 404.08 94.00 414.71 93.85 426.92 C 93.49 461.64 94.36 496.39 93.45 531.09 C 84.13 534.00 76.20 539.89 70.61 547.88 C 74.43 538.72 83.47 533.26 92.51 530.24 C 93.29 496.18 93.11 462.11 92.81 428.05 Z" opacity="1.00" fill="#0a293c"/>
<path d="M 225.18 431.01 C 225.26 424.86 227.02 417.75 232.45 414.18 C 222.10 427.80 227.01 445.88 226.20 461.66 C 242.48 460.48 261.47 465.69 274.90 453.62 C 270.91 459.82 262.99 461.97 256.06 462.71 C 245.84 462.96 235.59 462.84 225.36 462.65 C 225.06 452.11 225.40 441.55 225.18 431.01 Z" opacity="1.00" fill="#0a293c"/>
<path d="M 535.35 420.53 C 542.36 417.84 550.13 424.74 548.09 432.06 C 547.30 441.00 533.90 442.72 529.70 435.33 C 526.67 429.88 529.28 422.42 535.35 420.53 Z" opacity="1.00" fill="#0a293c"/>
<path d="M 340.20 424.16 C 350.79 423.90 361.40 424.21 372.00 423.96 C 382.58 423.84 394.06 427.71 400.22 436.79 C 405.46 444.05 405.46 453.80 403.14 462.13 C 400.22 471.92 390.88 478.72 380.99 480.13 C 373.26 481.22 365.42 480.72 357.65 481.12 C 357.43 490.37 357.69 499.62 357.55 508.88 C 351.79 508.95 346.03 508.98 340.27 508.85 C 340.18 480.62 340.21 452.39 340.20 424.16 M 357.63 438.58 C 357.36 447.69 358.02 456.80 357.43 465.91 C 362.97 466.09 368.52 466.03 374.06 465.96 C 381.38 466.36 387.96 459.27 387.10 451.99 C 387.88 445.11 381.44 439.57 375.04 438.96 C 369.26 438.30 363.43 438.56 357.63 438.58 Z" opacity="1.00" fill="#0a293c"/>
<path d="M 734.13 424.11 C 744.75 424.01 755.38 424.07 766.01 424.04 C 774.91 424.08 784.25 426.88 790.49 433.51 C 798.83 441.73 799.67 455.45 794.73 465.67 C 791.20 473.50 783.13 478.32 774.97 479.98 C 767.25 481.05 759.43 480.56 751.67 480.89 C 751.50 490.21 751.61 499.55 751.49 508.88 C 745.71 508.95 739.93 508.99 734.15 508.83 C 733.98 480.59 734.02 452.35 734.13 424.11 M 751.58 438.59 C 751.53 447.74 751.63 456.88 751.50 466.03 C 758.52 465.48 766.01 467.35 772.71 464.73 C 782.27 460.59 782.61 445.27 773.42 440.55 C 766.53 437.75 758.84 438.81 751.58 438.59 Z" opacity="1.00" fill="#0a293c"/>
<path d="M 696.79 430.55 C 702.17 430.54 707.54 430.44 712.92 430.56 C 712.90 436.00 712.86 441.44 713.11 446.88 C 717.33 447.07 721.56 447.10 725.80 447.12 C 726.00 451.38 725.97 455.64 725.87 459.91 C 721.62 459.98 717.36 460.03 713.12 460.13 C 713.13 470.89 712.51 481.72 713.57 492.44 C 715.02 497.76 721.84 495.82 725.90 495.79 C 726.11 500.09 726.07 504.40 725.81 508.70 C 717.74 510.46 708.27 511.04 701.47 505.51 C 697.10 502.08 696.80 496.08 696.68 490.99 C 696.71 480.71 696.55 470.44 696.79 460.17 C 693.21 460.00 689.63 459.91 686.06 459.87 C 686.06 455.63 686.02 451.38 686.21 447.15 C 689.69 447.05 693.17 446.95 696.65 446.76 C 696.66 441.35 696.66 435.95 696.79 430.55 Z" opacity="1.00" fill="#0a293c"/>
<path d="M 928.14 430.58 C 933.73 430.56 939.33 430.45 944.94 430.57 C 944.96 436.02 944.91 441.47 945.07 446.93 C 949.01 447.07 952.97 447.09 956.93 447.08 C 956.93 451.34 956.93 455.61 956.89 459.88 C 952.96 459.93 949.04 459.98 945.13 460.13 C 944.76 469.08 945.16 478.05 945.04 487.01 C 945.21 489.74 944.65 493.07 946.85 495.17 C 949.99 496.57 953.59 496.03 956.94 496.24 C 956.92 500.41 956.92 504.59 956.92 508.77 C 946.80 511.41 931.90 510.44 928.52 498.46 C 927.33 485.77 928.61 472.93 927.86 460.19 C 924.42 460.03 920.99 459.91 917.56 459.72 C 917.77 455.60 917.62 451.48 917.42 447.36 C 920.90 447.12 924.39 446.98 927.89 446.83 C 928.11 441.41 928.06 435.99 928.14 430.58 Z" opacity="1.00" fill="#0a293c"/>
<path d="M 428.30 455.47 C 432.81 448.07 441.47 444.72 449.90 445.87 C 449.94 450.86 449.94 455.86 449.86 460.85 C 442.49 460.48 431.63 460.92 429.80 469.97 C 428.42 482.86 429.15 495.95 428.93 508.93 C 423.43 508.94 417.93 508.97 412.44 508.86 C 412.43 488.27 412.28 467.68 412.41 447.09 C 417.83 446.78 423.26 447.00 428.69 447.22 C 428.47 449.97 428.31 452.71 428.30 455.47 Z" opacity="1.00" fill="#0a293c"/>
<path d="M 478.38 446.43 C 488.33 444.55 499.24 446.21 507.23 452.77 C 520.46 463.53 521.56 484.70 512.22 498.30 C 501.86 512.88 478.97 514.38 465.39 503.61 C 453.93 494.25 451.47 477.10 456.93 463.86 C 460.27 454.71 469.05 448.40 478.38 446.43 M 481.27 460.38 C 470.52 464.09 469.51 478.11 472.64 487.41 C 475.70 496.81 489.03 499.73 496.08 493.07 C 502.27 487.72 501.46 478.65 500.53 471.35 C 498.84 462.83 489.41 457.91 481.27 460.38 Z" opacity="1.00" fill="#0a293c"/>
<path d="M 566.74 452.75 C 578.20 443.44 596.60 443.17 607.52 453.49 C 615.00 461.02 617.13 472.32 615.86 482.55 C 601.30 482.64 586.73 482.49 572.16 482.61 C 572.65 491.84 581.57 499.82 590.91 497.82 C 595.37 497.52 598.22 493.94 601.30 491.20 C 605.99 490.23 610.89 490.94 615.67 490.67 C 613.34 504.49 598.20 511.96 585.21 510.50 C 572.42 510.38 560.73 500.92 557.55 488.61 C 554.00 476.25 556.94 461.48 566.74 452.75 M 571.75 472.31 C 581.55 472.50 591.37 472.46 601.18 472.30 C 600.81 465.00 594.73 458.06 587.01 458.96 C 578.94 457.90 572.96 464.96 571.75 472.31 Z" opacity="1.00" fill="#0a293c"/>
<path d="M 627.46 460.35 C 636.03 445.53 657.48 441.55 671.66 450.38 C 678.36 453.93 682.20 461.29 683.15 468.61 C 677.74 468.83 672.32 468.80 666.92 468.59 C 664.25 457.26 646.36 456.61 641.97 466.98 C 638.28 475.93 638.39 488.78 647.07 494.93 C 654.02 499.21 663.61 496.45 667.23 489.12 C 672.05 486.80 678.20 488.57 683.52 488.20 C 682.18 495.33 678.61 502.37 672.13 506.10 C 658.97 513.68 640.27 511.72 630.11 499.98 C 621.34 488.96 620.70 472.52 627.46 460.35 Z" opacity="1.00" fill="#0a293c"/>
<path d="M 826.38 446.45 C 837.24 444.72 849.36 446.41 857.28 454.69 C 868.86 466.68 868.98 487.73 858.37 500.37 C 850.96 508.90 838.86 511.81 827.99 510.07 C 812.71 508.40 800.60 493.26 802.01 478.00 C 800.81 463.22 811.56 448.74 826.38 446.45 M 828.30 460.44 C 817.60 464.47 817.58 478.41 820.23 487.66 C 823.87 499.55 842.82 499.62 847.42 488.41 C 850.10 480.75 850.30 470.76 844.65 464.35 C 840.74 459.50 833.94 459.10 828.30 460.44 Z" opacity="1.00" fill="#0a293c"/>
<path d="M 891.61 454.51 C 896.84 447.98 904.97 444.29 913.35 446.42 C 912.88 451.22 912.87 456.05 912.91 460.87 C 905.27 460.27 894.09 461.48 892.88 470.98 C 891.48 483.52 892.55 496.25 892.26 508.86 C 886.89 508.96 881.51 508.97 876.15 508.85 C 876.05 488.29 875.98 467.73 876.18 447.17 C 881.31 447.03 886.44 447.05 891.58 447.12 C 891.60 449.58 891.60 452.04 891.61 454.51 Z" opacity="1.00" fill="#0a293c"/>
<path d="M 530.25 446.89 C 535.85 446.93 541.45 447.08 547.06 447.15 C 546.52 469.46 547.06 491.77 546.69 514.07 C 546.58 519.85 544.26 526.05 538.97 528.97 C 532.27 533.29 523.97 532.32 516.41 531.93 C 516.53 527.32 516.56 522.71 516.71 518.10 C 521.34 518.45 529.41 519.60 529.82 512.95 C 530.39 490.95 529.63 468.90 530.25 446.89 Z" opacity="1.00" fill="#0a293c"/>
<path d="M 357.36 546.48 C 368.50 543.65 380.56 551.64 383.27 562.64 C 385.08 570.86 383.88 580.52 377.71 586.72 C 368.91 595.78 351.78 595.19 344.44 584.56 C 334.86 571.89 340.75 549.60 357.36 546.48 M 358.35 553.46 C 344.48 557.55 344.13 580.62 357.49 585.54 C 367.10 589.04 377.12 579.70 376.12 570.02 C 377.39 560.49 368.09 550.50 358.35 553.46 Z" opacity="1.00" fill="#0a293c"/>
<path d="M 436.17 546.08 C 438.40 546.10 440.64 546.14 442.88 546.20 C 442.88 561.75 443.61 577.33 442.78 592.88 C 440.72 592.78 438.66 592.67 436.60 592.58 C 436.11 591.55 435.63 590.53 435.16 589.51 C 430.70 593.47 423.82 594.23 418.63 591.36 C 408.32 584.45 408.31 566.54 418.67 559.68 C 424.03 556.22 430.93 557.71 435.53 561.73 C 436.07 556.53 435.76 551.29 436.17 546.08 M 425.29 564.32 C 415.03 567.50 416.88 588.42 428.94 587.00 C 439.98 583.90 437.87 562.12 425.29 564.32 Z" opacity="1.00" fill="#0a293c"/>
<path d="M 535.14 546.15 C 547.05 546.15 558.98 545.62 570.89 546.24 C 570.92 548.46 570.94 550.69 570.97 552.93 C 566.29 552.88 561.62 552.89 556.95 553.18 C 556.33 566.19 556.63 579.23 556.68 592.26 C 554.20 592.51 551.72 592.69 549.25 592.86 C 548.61 579.65 549.55 566.41 548.88 553.21 C 544.27 552.93 539.65 552.87 535.04 552.92 C 535.07 550.65 535.10 548.40 535.14 546.15 Z" opacity="1.00" fill="#0a293c"/>
<path d="M 666.16 546.07 C 668.51 546.10 670.86 546.16 673.22 546.23 C 673.35 555.01 673.11 563.79 673.32 572.57 C 681.18 568.21 685.04 556.27 695.57 558.20 C 691.97 563.48 686.50 567.15 683.19 572.63 C 688.07 578.81 692.63 585.35 696.02 592.48 C 693.44 592.56 690.86 592.61 688.30 592.65 C 684.27 587.86 681.81 581.88 677.21 577.57 C 671.97 580.99 673.38 587.38 673.02 592.71 C 670.74 592.68 668.47 592.64 666.20 592.60 C 665.90 577.09 666.02 561.58 666.16 546.07 Z" opacity="1.00" fill="#0a293c"/>
<path d="M 731.13 546.17 C 739.15 545.84 747.43 545.40 755.19 547.83 C 763.44 550.59 768.72 559.46 767.99 568.01 C 768.64 575.83 766.29 584.86 759.14 589.10 C 750.76 594.42 740.46 591.85 731.15 592.81 C 730.96 577.26 730.99 561.71 731.13 546.17 M 738.87 553.17 C 738.36 564.00 739.12 574.86 738.48 585.69 C 744.70 586.20 752.34 587.24 756.87 581.86 C 761.74 575.61 761.51 565.88 757.98 559.07 C 754.19 552.34 745.54 552.52 738.87 553.17 Z" opacity="1.00" fill="#0a293c"/>
<path d="M 811.17 546.19 C 813.66 546.11 816.15 546.08 818.65 546.09 C 818.54 561.55 818.80 577.03 818.45 592.49 C 816.02 592.61 813.59 592.71 811.17 592.78 C 810.88 577.26 810.87 561.71 811.17 546.19 Z" opacity="1.00" fill="#0a293c"/>
<path d="M 827.20 546.31 C 832.57 543.56 836.46 550.83 831.83 554.00 C 826.90 557.00 822.54 548.69 827.20 546.31 Z" opacity="1.00" fill="#0a293c"/>
<path d="M 389.63 558.75 C 391.68 558.61 393.73 558.50 395.78 558.38 C 396.18 559.88 396.56 561.38 396.93 562.90 C 399.59 558.67 404.37 557.41 409.12 558.08 C 409.05 560.31 408.97 562.54 408.90 564.78 C 404.81 564.87 398.79 564.45 397.54 569.53 C 396.37 577.14 397.47 584.92 396.64 592.58 C 394.32 592.36 391.55 593.29 389.55 591.96 C 389.29 580.91 389.83 569.82 389.63 558.75 Z" opacity="1.00" fill="#0a293c"/>
<path d="M 451.69 565.70 C 455.99 556.98 468.52 555.41 475.77 561.20 C 480.49 565.31 480.44 572.05 480.91 577.79 C 472.91 577.77 464.91 577.52 456.92 577.80 C 457.10 583.71 462.87 588.56 468.72 586.60 C 472.20 584.49 475.80 582.49 479.97 582.23 C 479.62 592.71 466.09 595.05 458.17 591.74 C 448.94 586.94 447.91 574.35 451.69 565.70 M 456.61 571.72 C 462.49 572.12 468.51 572.74 474.30 571.28 C 472.22 567.90 469.66 563.43 464.99 564.01 C 460.35 563.45 458.01 568.09 456.61 571.72 Z" opacity="1.00" fill="#0a293c"/>
<path d="M 486.31 558.47 C 488.35 558.47 490.39 558.48 492.44 558.50 C 492.78 559.79 493.12 561.10 493.47 562.41 C 496.76 559.03 501.13 557.35 505.86 558.07 C 505.83 560.28 505.78 562.50 505.74 564.72 C 501.67 564.88 495.96 564.46 494.34 569.22 C 492.87 576.87 493.92 584.71 493.67 592.45 C 491.17 592.50 488.69 592.56 486.20 592.61 C 486.04 581.24 485.76 569.84 486.31 558.47 Z" opacity="1.00" fill="#0a293c"/>
<path d="M 580.83 561.46 C 583.99 558.62 588.09 557.57 592.27 557.75 C 592.17 560.06 592.06 562.36 591.94 564.68 C 587.76 564.69 582.13 564.86 580.77 569.78 C 578.92 577.21 580.48 585.02 579.76 592.60 C 577.55 592.73 575.35 592.85 573.16 592.96 C 572.98 581.51 573.11 570.06 573.09 558.61 C 575.12 558.59 577.15 558.57 579.19 558.54 C 579.73 559.51 580.28 560.48 580.83 561.46 Z" opacity="1.00" fill="#0a293c"/>
<path d="M 596.13 568.45 C 596.92 556.20 615.80 554.48 622.32 562.61 C 624.89 572.25 623.57 582.57 623.73 592.48 C 621.90 592.62 620.08 592.76 618.27 592.92 C 617.54 592.04 616.82 591.17 616.11 590.31 C 611.49 592.85 605.91 593.85 600.85 592.13 C 594.77 589.76 593.03 580.34 598.27 576.24 C 603.03 572.02 609.96 573.02 615.45 570.49 C 618.21 564.08 609.87 562.96 605.51 564.30 C 604.71 565.67 603.92 567.04 603.14 568.42 C 600.80 568.43 598.47 568.46 596.13 568.45 M 604.91 578.93 C 601.30 580.75 602.51 587.42 606.95 587.01 C 613.51 588.67 617.91 582.03 616.79 576.13 C 612.82 577.00 608.70 577.42 604.91 578.93 Z" opacity="1.00" fill="#0a293c"/>
<path d="M 636.90 559.95 C 645.17 555.14 659.91 558.33 659.99 569.71 C 657.87 569.67 655.76 569.61 653.65 569.53 C 651.52 565.13 646.47 562.51 641.80 564.71 C 636.02 568.42 636.04 576.75 638.50 582.43 C 641.67 588.68 651.82 588.25 653.67 581.14 C 655.77 581.05 657.89 580.98 660.01 580.93 C 660.39 592.47 645.21 595.81 636.87 591.09 C 626.52 584.39 626.83 566.75 636.90 559.95 Z" opacity="1.00" fill="#0a293c"/>
<path d="M 775.77 565.72 C 779.96 557.01 792.59 555.31 799.70 561.28 C 804.35 565.36 804.53 572.03 804.95 577.75 C 796.92 577.68 788.89 577.45 780.88 577.78 C 781.12 583.66 786.88 588.46 792.71 586.61 C 796.14 584.56 799.60 582.44 803.76 582.30 C 803.65 592.37 790.62 594.90 782.89 592.00 C 773.10 587.75 771.60 574.43 775.77 565.72 M 780.60 571.77 C 786.28 572.25 791.99 572.23 797.68 572.02 C 797.12 567.35 792.90 563.14 787.98 564.06 C 783.76 564.05 781.79 568.38 780.60 571.77 Z" opacity="1.00" fill="#0a293c"/>
<path d="M 826.38 558.41 C 828.65 558.46 830.93 558.53 833.22 558.63 C 833.12 569.99 832.94 581.36 832.80 592.72 C 830.59 592.68 828.39 592.64 826.20 592.60 C 826.12 581.20 825.54 569.78 826.38 558.41 Z" opacity="1.00" fill="#0a293c"/>
<path d="M 838.14 558.60 C 840.74 558.50 843.33 558.43 845.94 558.35 C 849.42 566.23 851.30 574.74 855.07 582.51 C 858.04 574.82 860.41 566.90 863.37 559.22 C 865.77 558.25 868.44 558.40 871.00 558.19 C 867.54 569.06 862.97 579.55 859.10 590.28 C 858.35 593.68 854.17 592.18 851.65 592.67 C 846.87 581.42 842.68 569.94 838.14 558.60 Z" opacity="1.00" fill="#0a293c"/>
<path d="M 881.45 559.45 C 888.29 556.39 898.35 557.66 901.95 565.00 C 904.23 568.89 903.95 573.49 903.85 577.82 C 896.13 577.64 888.42 577.47 880.71 577.73 C 881.03 581.97 883.21 586.72 888.08 586.88 C 893.86 588.64 898.21 580.38 903.68 583.46 C 901.65 592.49 889.81 594.85 882.16 591.86 C 870.18 585.94 870.00 565.97 881.45 559.45 M 880.28 572.02 C 886.06 572.19 891.84 572.24 897.62 572.00 C 896.21 568.26 893.74 563.52 889.00 564.02 C 884.20 563.46 881.11 567.82 880.28 572.02 Z" opacity="1.00" fill="#0a293c"/>
<path d="M 916.79 561.95 C 919.90 558.76 924.15 557.48 928.53 558.19 C 928.50 560.33 928.48 562.48 928.48 564.63 C 924.50 564.89 918.64 564.40 917.34 569.30 C 915.42 576.82 916.87 584.69 916.44 592.36 C 914.05 592.54 911.66 592.68 909.28 592.79 C 908.88 581.47 909.65 570.15 909.18 558.83 C 911.19 558.76 913.19 558.68 915.21 558.61 C 915.73 559.72 916.25 560.83 916.79 561.95 Z" opacity="1.00" fill="#0a293c"/>
<path d="M 508.38 584.48 C 514.65 580.56 518.87 592.02 511.98 592.85 C 506.77 594.73 503.84 586.98 508.38 584.48 Z" opacity="1.00" fill="#0a293c"/>
<path d="M 700.46 588.34 C 700.43 584.06 704.83 583.94 708.04 583.93 C 710.17 586.71 710.38 590.33 708.05 593.07 C 704.85 593.17 699.99 592.69 700.46 588.34 Z" opacity="1.00" fill="#0a293c"/>
<path d="M 931.28 584.38 C 937.99 580.40 941.19 593.34 933.98 592.90 C 928.89 594.39 927.18 586.02 931.28 584.38 Z" opacity="1.00" fill="#0a293c"/>
</g>
<g id="#f44143ff">
<path d="M 269.45 514.44 C 274.75 508.83 285.33 512.34 286.28 519.98 C 287.63 526.48 281.83 530.77 277.90 534.90 C 251.38 562.71 224.73 590.40 198.17 618.19 C 194.04 622.92 186.01 624.60 181.36 619.64 C 171.74 610.56 161.27 602.32 152.31 592.57 C 147.79 583.85 158.72 573.92 166.97 579.10 C 174.40 585.60 180.72 593.45 188.93 599.08 C 215.96 571.06 242.42 542.47 269.45 514.44 Z" opacity="1.00" fill="#f44143"/>
</g>
</svg>