<?xml version="1.0" encoding="UTF-8" ?>
<!DOCTYPE svg PUBLIC "-//W3C//DTD SVG 1.1//EN" "http://www.w3.org/Graphics/SVG/1.1/DTD/svg11.dtd">
<svg width="972pt" height="944pt" viewBox="0 0 972 944" version="1.1" xmlns="http://www.w3.org/2000/svg">
<g id="#116c66ff">
<path fill="#116c66" opacity="1.00" d=" M 277.87 27.96 C 288.65 21.71 301.75 26.80 312.94 22.56 C 316.40 22.40 319.96 22.27 323.02 24.18 C 331.62 24.81 340.31 24.29 348.95 24.57 C 354.86 26.39 360.47 28.92 366.78 28.64 C 372.84 31.56 379.51 32.38 385.32 35.79 C 393.71 37.04 399.93 43.98 408.10 46.10 C 416.86 52.34 427.31 56.26 434.80 64.20 C 446.07 74.85 457.01 85.90 467.38 97.42 C 472.73 105.54 477.56 114.02 482.88 122.09 C 483.53 130.02 491.67 134.94 491.58 143.10 C 497.67 154.06 498.19 167.11 501.53 178.96 C 502.87 194.86 504.87 211.07 502.42 226.96 C 503.71 238.79 497.86 249.36 497.48 260.95 C 489.69 283.10 481.35 305.78 465.79 323.92 C 450.86 346.77 427.53 361.68 404.64 375.53 C 381.95 387.49 357.46 394.97 332.04 396.53 C 326.92 398.50 321.28 396.91 316.01 398.29 C 282.54 398.50 249.06 398.08 215.59 398.48 C 214.78 399.16 214.08 399.95 213.51 400.84 C 213.55 460.23 213.42 519.63 213.63 579.02 C 215.92 584.94 222.75 584.13 226.53 588.48 C 239.55 596.67 251.43 607.24 259.92 620.09 C 263.08 622.99 265.83 626.96 269.95 628.39 C 322.32 628.46 374.70 628.44 427.07 628.41 C 430.78 627.62 434.27 625.55 437.93 624.58 C 446.12 625.02 453.12 619.86 460.91 618.03 C 472.98 613.68 483.35 605.95 493.97 598.95 C 500.72 592.71 507.01 585.98 513.52 579.49 C 526.05 563.04 536.32 544.48 541.38 524.46 C 543.34 518.04 542.33 510.98 544.49 504.49 C 545.45 501.30 547.96 498.53 547.45 495.03 C 547.57 390.68 547.46 286.33 547.52 181.98 C 547.91 178.55 548.14 174.87 549.96 171.84 C 550.65 157.48 556.98 144.27 562.37 130.97 C 562.26 126.13 566.62 122.95 569.29 119.39 C 569.63 114.25 572.96 109.97 576.46 106.45 C 584.38 92.88 595.09 81.18 606.56 70.47 C 611.16 68.11 614.60 64.15 618.28 60.62 C 618.79 60.71 619.30 60.81 619.82 60.91 C 632.49 49.49 648.27 42.27 663.90 35.73 C 671.29 31.77 679.57 30.36 687.52 28.64 C 705.62 23.55 725.09 22.63 743.99 24.46 C 752.19 24.61 760.69 23.53 768.29 27.36 C 772.99 27.44 777.03 30.34 781.85 29.71 C 782.21 30.24 782.59 30.77 782.97 31.30 C 819.13 41.83 851.56 64.72 874.08 94.92 C 882.33 102.08 885.18 112.95 892.15 121.13 C 892.98 128.07 898.41 132.86 900.41 138.88 C 899.64 142.85 902.42 145.82 904.02 149.13 C 905.06 155.80 907.42 162.22 908.41 168.99 C 907.79 173.10 910.54 176.46 911.47 180.25 C 911.34 193.21 913.24 206.01 912.26 219.00 C 910.89 224.22 911.88 229.71 911.57 235.05 C 912.07 240.04 907.72 243.99 908.34 249.02 C 902.61 279.46 888.76 309.37 867.08 332.21 C 867.18 332.71 867.29 333.22 867.41 333.74 C 854.86 347.43 840.40 358.89 824.59 368.61 C 807.37 380.94 786.77 387.42 766.73 392.97 C 760.79 395.89 753.90 392.97 747.96 395.68 C 740.71 397.16 733.42 397.57 726.01 398.33 C 692.82 398.44 659.62 398.16 626.44 398.46 C 625.44 399.22 624.50 400.05 623.61 400.93 C 623.36 435.97 623.61 471.02 623.46 506.07 C 621.37 513.40 619.06 520.74 619.35 528.61 C 614.03 536.82 616.17 546.90 610.81 555.03 C 602.45 581.16 587.68 605.66 569.69 626.70 C 555.19 641.50 541.19 657.30 523.47 668.34 C 502.84 681.77 480.44 693.77 457.01 699.46 C 448.48 702.70 438.44 701.40 429.95 705.39 C 382.26 705.77 334.56 705.33 286.88 705.61 C 281.91 707.36 284.28 713.41 280.43 716.45 C 277.80 732.24 269.78 747.35 260.57 760.57 C 254.33 766.07 250.53 773.75 243.89 778.84 C 239.25 781.84 235.33 785.75 230.57 788.56 C 223.18 796.20 212.41 798.45 203.18 803.04 C 193.92 805.74 184.56 808.08 175.04 809.50 C 164.04 809.07 152.63 811.17 142.10 807.19 C 131.15 805.24 120.41 802.94 110.46 797.06 C 100.63 794.99 95.20 785.63 86.14 782.03 C 81.68 778.74 78.59 773.84 73.58 771.25 C 73.48 770.64 73.28 769.43 73.18 768.83 C 72.57 768.72 71.37 768.52 70.77 768.42 C 66.02 762.18 62.07 755.47 58.26 748.64 C 52.36 742.92 51.80 734.67 47.77 727.92 C 47.78 722.21 45.40 717.20 43.52 712.05 C 43.36 698.01 43.42 683.97 43.48 669.93 C 44.29 665.14 48.11 661.04 47.45 655.98 C 46.53 651.96 50.66 649.55 51.39 645.96 C 51.59 638.41 58.75 633.25 60.14 626.25 C 74.79 604.14 95.88 585.68 121.29 577.13 C 126.86 573.51 136.33 573.80 136.39 565.06 C 136.54 436.69 136.31 308.32 136.55 179.96 C 136.01 177.64 138.04 176.27 139.24 174.64 C 140.42 169.70 141.91 164.97 143.30 160.07 C 142.62 155.53 144.97 151.61 147.06 147.80 C 148.60 139.04 151.77 130.34 157.19 122.88 C 157.36 121.57 157.52 120.26 157.67 118.95 C 163.71 111.42 168.03 102.55 173.76 94.73 C 194.17 72.68 215.66 49.94 244.16 38.67 C 255.30 34.65 265.94 28.99 277.87 27.96 M 269.84 116.83 C 268.33 118.38 266.30 118.69 264.23 118.37 C 264.74 118.86 265.25 119.35 265.76 119.85 C 259.78 121.44 256.33 126.97 251.20 129.98 C 244.92 135.47 238.71 141.19 234.38 148.38 C 228.06 153.17 226.90 161.40 221.91 167.18 C 218.56 175.75 217.46 184.57 213.66 192.95 C 213.36 232.98 213.62 273.02 213.52 313.05 C 213.30 315.88 215.52 318.03 216.98 320.21 C 228.03 321.51 239.10 318.90 249.99 320.42 C 267.67 320.39 285.34 320.43 303.02 320.41 C 313.11 318.58 323.92 320.97 333.48 316.88 C 346.04 316.19 357.65 310.80 368.95 305.21 C 382.76 295.63 396.90 285.11 405.53 270.49 C 412.35 263.58 417.35 254.35 418.96 244.86 C 421.03 239.76 423.22 234.72 422.57 229.05 C 426.10 221.32 424.08 212.27 424.34 203.95 C 420.09 198.59 424.75 191.01 420.68 185.62 C 420.78 176.33 413.47 169.04 411.61 160.47 C 406.96 155.31 403.10 149.55 399.56 143.60 C 388.76 127.70 371.48 118.52 354.95 109.72 C 349.03 109.54 343.63 107.21 338.07 105.61 C 324.37 105.48 310.66 105.44 296.95 105.62 C 288.11 109.99 278.00 110.80 269.84 116.83 M 697.10 109.78 C 691.71 112.37 686.38 115.05 681.09 117.82 C 665.91 123.81 655.96 137.49 644.60 148.55 C 643.69 152.85 640.49 155.75 637.72 159.03 C 637.53 164.40 632.06 167.62 631.27 172.86 C 626.93 181.49 627.92 191.36 623.55 199.93 C 623.44 237.64 623.54 275.35 623.50 313.06 C 623.21 315.91 625.45 318.07 626.94 320.24 C 640.26 321.03 653.71 317.96 666.98 320.38 C 691.21 320.11 715.57 321.31 739.64 319.29 C 743.71 316.59 748.73 318.22 753.10 317.06 C 763.37 312.77 775.34 310.85 784.08 303.18 C 790.63 299.59 796.08 294.36 802.29 290.24 C 813.04 281.95 817.70 268.75 826.90 259.05 C 829.64 249.47 833.75 239.89 835.52 230.06 C 835.58 218.35 835.66 206.64 835.48 194.94 C 831.93 182.76 828.69 169.51 821.29 158.68 C 816.96 155.06 817.52 148.49 813.04 144.99 C 802.47 134.79 793.15 121.84 778.62 117.11 C 774.14 114.49 769.54 112.10 764.94 109.72 C 758.61 109.81 753.03 107.12 747.09 105.58 C 734.70 105.48 722.32 105.45 709.94 105.62 C 705.63 107.06 701.74 109.78 697.10 109.78 M 150.13 642.32 C 140.82 643.12 132.76 649.70 126.76 656.73 C 124.89 661.93 118.51 664.20 117.91 669.92 C 114.39 678.49 115.86 687.96 115.52 697.01 C 117.25 714.93 130.41 731.07 147.88 736.00 C 156.07 739.76 165.38 738.24 174.10 738.25 C 190.42 732.42 205.02 719.96 210.34 703.09 C 210.60 694.38 210.38 685.65 210.39 676.93 C 207.93 668.41 203.90 659.91 196.99 654.01 C 187.90 643.73 174.03 640.37 160.98 639.61 C 157.48 641.22 152.75 638.95 150.13 642.32 Z" />
</g>
<g id="#f44142ff">
<path fill="#f44142" opacity="1.00" d=" M 785.02 510.01 C 794.97 501.69 808.90 503.00 820.84 504.78 C 829.67 508.57 835.19 516.72 841.00 523.95 C 844.87 531.03 843.31 539.32 843.50 547.09 C 842.25 553.53 838.53 559.23 834.51 564.52 C 824.47 575.46 813.10 585.22 803.96 596.97 C 790.48 610.80 776.34 624.08 763.98 638.93 C 751.75 651.38 739.30 663.62 727.23 676.23 C 717.94 688.78 705.27 698.40 695.92 710.93 C 677.44 729.78 658.50 748.18 640.24 767.24 C 625.79 785.30 607.18 799.67 592.98 817.98 C 578.03 832.58 563.77 847.96 548.59 862.27 C 548.92 862.71 549.25 863.17 549.57 863.64 C 537.19 875.20 526.06 888.06 513.43 899.36 C 509.95 901.19 507.09 904.44 502.97 904.73 C 501.25 907.86 496.87 905.07 495.09 908.27 C 486.92 910.82 479.16 907.33 471.17 905.87 C 462.30 900.28 455.15 892.52 447.32 885.66 C 440.58 880.79 435.99 873.34 428.60 869.31 C 422.56 864.04 417.39 857.76 410.64 853.30 C 401.42 844.89 392.89 835.66 383.05 827.93 C 373.15 818.43 363.60 808.56 353.72 799.04 C 353.79 795.16 350.88 791.92 351.54 787.96 C 348.82 776.41 354.28 764.06 362.04 755.09 C 367.69 751.47 373.33 747.41 379.91 745.70 C 386.30 745.47 392.70 745.54 399.09 745.65 C 403.84 746.00 406.63 750.60 410.97 751.96 C 425.40 766.21 439.57 780.75 454.09 794.91 C 456.28 797.23 458.79 799.22 461.51 800.89 C 468.74 806.84 474.28 814.82 482.52 819.53 C 485.48 819.67 488.47 819.67 491.43 819.48 C 505.26 805.94 518.11 791.46 531.90 777.89 C 535.52 772.15 541.79 768.56 544.84 762.45 C 555.25 751.00 567.10 740.83 576.54 728.54 C 592.96 711.63 610.38 695.59 625.50 677.50 C 634.73 668.07 644.18 658.84 653.25 649.26 C 661.52 637.67 673.48 629.31 681.58 617.57 C 694.61 604.28 707.76 591.09 720.67 577.67 C 733.47 561.61 750.13 548.96 762.54 532.54 C 769.97 524.97 777.43 517.43 785.02 510.01 Z" />
</g>
</svg>
